ffmpeg version 8.0.1 Copyright (c) 2000-2025 the FFmpeg developers
built with Apple clang version 17.0.0 (clang-1700.6.3.2)
configuration: --prefix=/opt/homebrew/Cellar/ffmpeg/8.0.1_4 --enable-shared --enable-pthreads --enable-version3 --cc=clang --host-cflags= --host-ldflags= --enable-ffplay --enable-gpl --enable-libsvtav1 --enable-libopus --enable-libx264 --enable-libmp3lame --enable-libdav1d --enable-libvpx --enable-libx265 --enable-openssl --enable-videotoolbox --enable-audiotoolbox --enable-neon
libavutil      60.  8.100 / 60.  8.100
libavcodec     62. 11.100 / 62. 11.100
libavformat    62.  3.100 / 62.  3.100
libavdevice    62.  1.100 / 62.  1.100
libavfilter    11.  4.100 / 11.  4.100
libswscale      9.  1.100 /  9.  1.100
libswresample   6.  1.100 /  6.  1.100

Exiting with exit code 0
ffmpeg is available.
whisper_init_from_file_with_params_no_state: loading model from '/Users/akbay/Developer/turkcealtyazi/companion-app/whisper.cpp/models/ggml-large-v3.bin'
whisper_init_with_params_no_state: use gpu    = 1
whisper_init_with_params_no_state: flash attn = 1
whisper_init_with_params_no_state: gpu_device = 0
whisper_init_with_params_no_state: dtw        = 0
ggml_metal_device_init: tensor API disabled for pre-M5 and pre-A19 devices
ggml_metal_library_init: using embedded metal library
ggml_metal_library_init: loaded in 0.022 sec
ggml_metal_rsets_init: creating a residency set collection (keep_alive = 180 s)
ggml_metal_device_init: GPU name:   MTL0
ggml_metal_device_init: GPU family: MTLGPUFamilyApple9  (1009)
ggml_metal_device_init: GPU family: MTLGPUFamilyCommon3 (3003)
ggml_metal_device_init: GPU family: MTLGPUFamilyMetal4  (5002)
ggml_metal_device_init: simdgroup reduction   = true
ggml_metal_device_init: simdgroup matrix mul. = true
ggml_metal_device_init: has unified memory    = true
ggml_metal_device_init: has bfloat            = true
ggml_metal_device_init: has tensor            = false
ggml_metal_device_init: use residency sets    = true
ggml_metal_device_init: use shared buffers    = true
ggml_metal_device_init: recommendedMaxWorkingSetSize  = 12713.12 MB
whisper_init_with_params_no_state: devices    = 3
whisper_init_with_params_no_state: backends   = 3
whisper_model_load: loading model
whisper_model_load: n_vocab       = 51866
whisper_model_load: n_audio_ctx   = 1500
whisper_model_load: n_audio_state = 1280
whisper_model_load: n_audio_head  = 20
whisper_model_load: n_audio_layer = 32
whisper_model_load: n_text_ctx    = 448
whisper_model_load: n_text_state  = 1280
whisper_model_load: n_text_head   = 20
whisper_model_load: n_text_layer  = 32
whisper_model_load: n_mels        = 128
whisper_model_load: ftype         = 1
whisper_model_load: qntvr         = 0
whisper_model_load: type          = 5 (large v3)
whisper_model_load: adding 1609 extra tokens
whisper_model_load: n_langs       = 100
whisper_model_load:         MTL0 total size =  3094.36 MB
whisper_model_load: model size    = 3094.36 MB
whisper_backend_init_gpu: device 0: MTL0 (type: 1)
whisper_backend_init_gpu: found GPU device 0: MTL0 (type: 1, cnt: 0)
whisper_backend_init_gpu: using MTL0 backend
ggml_metal_init: allocating
ggml_metal_init: found device: Apple M4
ggml_metal_init: picking default device: Apple M4
ggml_metal_init: use fusion         = true
ggml_metal_init: use concurrency    = true
ggml_metal_init: use graph optimize = true
whisper_backend_init: using BLAS backend
whisper_init_state: kv self size  =   83.89 MB
whisper_init_state: kv cross size =  251.66 MB
whisper_init_state: kv pad  size  =    7.86 MB
whisper_init_state: loading Core ML model from '/Users/akbay/Developer/turkcealtyazi/companion-app/whisper.cpp/models/ggml-large-v3-encoder.mlmodelc'
whisper_init_state: first run on a device may take a while ...
whisper_init_state: Core ML model loaded
whisper_init_state: compute buffer (conv)   =   10.81 MB
whisper_init_state: compute buffer (cross)  =  139.83 MB
whisper_init_state: compute buffer (decode) =  100.04 MB
ffmpeg version 8.0.1 Copyright (c) 2000-2025 the FFmpeg developers
  built with Apple clang version 17.0.0 (clang-1700.6.3.2)
  configuration: --prefix=/opt/homebrew/Cellar/ffmpeg/8.0.1_4 --enable-shared --enable-pthreads --enable-version3 --cc=clang --host-cflags= --host-ldflags= --enable-ffplay --enable-gpl --enable-libsvtav1 --enable-libopus --enable-libx264 --enable-libmp3lame --enable-libdav1d --enable-libvpx --enable-libx265 --enable-openssl --enable-videotoolbox --enable-audiotoolbox --enable-neon
  libavutil      60.  8.100 / 60.  8.100
  libavcodec     62. 11.100 / 62. 11.100
  libavformat    62.  3.100 / 62.  3.100
  libavdevice    62.  1.100 / 62.  1.100
  libavfilter    11.  4.100 / 11.  4.100
  libswscale      9.  1.100 /  9.  1.100
  libswresample   6.  1.100 /  6.  1.100
Input #0, mov,mp4,m4a,3gp,3g2,mj2, from './whisper-server-20260323-233907-889032543.wav':
  Metadata:
    major_brand     : isom
    minor_version   : 1
    compatible_brands: isomiso4
    creation_time   : 2026-03-23T10:06:49.000000Z
  Duration: 00:02:19.97, start: 0.000000, bitrate: 1069 kb/s
  Stream #0:0[0x1](und): Video: h264 (High) (avc1 / 0x31637661), yuv420p(progressive), 1280x590, 933 kb/s, SAR 1:1 DAR 128:59, 25.03 fps, 59.94 tbr, 9000k tbn (default)
    Metadata:
      handler_name    : Twitter-vork muxer
      vendor_id       : [0][0][0][0]
  Stream #0:1[0x2](und): Audio: aac (LC) (mp4a / 0x6134706D), 48000 Hz, stereo, fltp, 128 kb/s (default)
    Metadata:
      handler_name    : Twitter-vork muxer
      vendor_id       : [0][0][0][0]
Stream mapping:
  Stream #0:1 -> #0:0 (aac (native) -> pcm_s16le (native))
Press [q] to stop, [?] for help
Output #0, wav, to './whisper-server-20260323-233907-889032543.wav_temp.wav':
  Metadata:
    major_brand     : isom
    minor_version   : 1
    compatible_brands: isomiso4
    ISFT            : Lavf62.3.100
  Stream #0:0(und): Audio: pcm_s16le ([1][0][0][0] / 0x0001), 16000 Hz, mono, s16, 256 kb/s (default)
    Metadata:
      encoder         : Lavc62.11.100 pcm_s16le
      handler_name    : Twitter-vork muxer
      vendor_id       : [0][0][0][0]
[out#0/wav @ 0x7dec50300] video:0KiB audio:4374KiB subtitle:0KiB other streams:0KiB global headers:0KiB muxing overhead: 0.001741%
size=    4374KiB time=00:02:19.96 bitrate= 256.0kbits/s speed=1.94e+03x elapsed=0:00:00.07    

system_info: n_threads = 4 / 10 | WHISPER : COREML = 1 | OPENVINO = 0 | MTL : EMBED_LIBRARY = 1 | CPU : NEON = 1 | ARM_FMA = 1 | FP16_VA = 1 | MATMUL_INT8 = 1 | DOTPROD = 1 | SME = 1 | ACCELERATE = 1 | REPACK = 1 | 

operator(): processing 'blob' (2239488 samples, 140.0 sec), 4 threads, 1 processors, lang = tr, task = transcribe, timestamps = 1 ...

whisper_full: VAD is enabled, processing speech segments only
whisper_vad: VAD is enabled, processing speech segments only
whisper_vad_init_from_file_with_params: loading VAD model from '/Users/akbay/Developer/turkcealtyazi/companion-app/whisper.cpp/models/ggml-silero-v6.2.0.bin'
whisper_vad_init_with_params: model type: silero-16k
whisper_vad_init_with_params: model version: 6.2.0
whisper_vad_init_with_params: n_encoder_layers = 4
whisper_vad_init_with_params: encoder_in_channels[0] = 129
whisper_vad_init_with_params: encoder_in_channels[1] = 128
whisper_vad_init_with_params: encoder_in_channels[2] = 64
whisper_vad_init_with_params: encoder_in_channels[3] = 64
whisper_vad_init_with_params: encoder_out_channels[0] = 128
whisper_vad_init_with_params: encoder_out_channels[1] = 64
whisper_vad_init_with_params: encoder_out_channels[2] = 64
whisper_vad_init_with_params: encoder_out_channels[3] = 128
whisper_vad_init_with_params: lstm_input_size = 128
whisper_vad_init_with_params: lstm_hidden_size = 128
whisper_vad_init_with_params: final_conv_in = 128
whisper_vad_init_with_params: final_conv_out = 1
whisper_vad_init_with_params:          CPU total size =     0.88 MB
whisper_vad_init_with_params: model size    =    0.88 MB
whisper_backend_init_gpu: no GPU found
whisper_backend_init: using BLAS backend
whisper_vad_init_context: compute buffer (VAD)   =    1.60 MB
whisper_vad_segments_from_samples: detecting speech timestamps in 2239488 samples
whisper_vad_detect_speech: detecting speech in 2239488 samples
whisper_vad_detect_speech: n_chunks: 4374
whisper_vad_detect_speech: props size: 4374
whisper_vad_detect_speech: vad time = 243.17 ms processing 2239488 samples
whisper_vad_segments_from_probs: detecting speech timestamps using 4374 probabilities
whisper_vad_segments_from_probs: Merged 3 adjacent segments, now have 20 segments
whisper_vad_segments_from_probs: Final speech segments after filtering: 20
whisper_vad_segments_from_probs: VAD segment 0: start = 0.16, end = 7.58 (duration: 7.42)
whisper_vad_segments_from_probs: VAD segment 1: start = 7.75, end = 9.41 (duration: 1.66)
whisper_vad_segments_from_probs: VAD segment 2: start = 9.70, end = 16.16 (duration: 6.46)
whisper_vad_segments_from_probs: VAD segment 3: start = 16.45, end = 24.67 (duration: 8.22)
whisper_vad_segments_from_probs: VAD segment 4: start = 25.38, end = 55.77 (duration: 30.39)
whisper_vad_segments_from_probs: VAD segment 5: start = 56.16, end = 58.85 (duration: 2.69)
whisper_vad_segments_from_probs: VAD segment 6: start = 59.04, end = 60.09 (duration: 1.05)
whisper_vad_segments_from_probs: VAD segment 7: start = 60.26, end = 73.57 (duration: 13.31)
whisper_vad_segments_from_probs: VAD segment 8: start = 73.89, end = 75.45 (duration: 1.56)
whisper_vad_segments_from_probs: VAD segment 9: start = 75.87, end = 89.50 (duration: 13.63)
whisper_vad_segments_from_probs: VAD segment 10: start = 89.92, end = 104.93 (duration: 15.01)
whisper_vad_segments_from_probs: VAD segment 11: start = 105.28, end = 105.98 (duration: 0.70)
whisper_vad_segments_from_probs: VAD segment 12: start = 106.21, end = 113.05 (duration: 6.84)
whisper_vad_segments_from_probs: VAD segment 13: start = 113.38, end = 115.52 (duration: 2.14)
whisper_vad_segments_from_probs: VAD segment 14: start = 116.16, end = 117.82 (duration: 1.66)
whisper_vad_segments_from_probs: VAD segment 15: start = 117.99, end = 129.92 (duration: 11.93)
whisper_vad_segments_from_probs: VAD segment 16: start = 130.15, end = 130.49 (duration: 0.34)
whisper_vad_segments_from_probs: VAD segment 17: start = 130.98, end = 132.64 (duration: 1.66)
whisper_vad_segments_from_probs: VAD segment 18: start = 132.99, end = 139.49 (duration: 6.50)
whisper_vad_segments_from_probs: VAD segment 19: start = 139.65, end = 139.97 (duration: 0.32)
whisper_vad: detected 20 speech segments
whisper_vad: Including segment 0: 0.16 - 7.68 (duration: 7.52)
whisper_vad: Including segment 1: 7.75 - 9.51 (duration: 1.76)
whisper_vad: Including segment 2: 9.70 - 16.26 (duration: 6.56)
whisper_vad: Including segment 3: 16.45 - 24.77 (duration: 8.32)
whisper_vad: Including segment 4: 25.38 - 55.87 (duration: 30.49)
whisper_vad: Including segment 5: 56.16 - 58.95 (duration: 2.79)
whisper_vad: Including segment 6: 59.04 - 60.19 (duration: 1.15)
whisper_vad: Including segment 7: 60.26 - 73.67 (duration: 13.41)
whisper_vad: Including segment 8: 73.89 - 75.55 (duration: 1.66)
whisper_vad: Including segment 9: 75.87 - 89.60 (duration: 13.73)
whisper_vad: Including segment 10: 89.92 - 105.03 (duration: 15.11)
whisper_vad: Including segment 11: 105.28 - 106.08 (duration: 0.80)
whisper_vad: Including segment 12: 106.21 - 113.15 (duration: 6.94)
whisper_vad: Including segment 13: 113.38 - 115.62 (duration: 2.24)
whisper_vad: Including segment 14: 116.16 - 117.92 (duration: 1.76)
whisper_vad: Including segment 15: 117.99 - 130.02 (duration: 12.03)
whisper_vad: Including segment 16: 130.15 - 130.59 (duration: 0.44)
whisper_vad: Including segment 17: 130.98 - 132.74 (duration: 1.76)
whisper_vad: Including segment 18: 132.99 - 139.59 (duration: 6.60)
whisper_vad: Including segment 19: 139.65 - 139.97 (duration: 0.32)
whisper_vad: total duration of speech segments: 135.39 seconds
whisper_vad: vad_segment_info: orig_start: 0.16, orig_end: 7.58, vad_start: 0.00, vad_end: 7.42
whisper_vad: vad_segment_info: orig_start: 7.75, orig_end: 9.41, vad_start: 7.62, vad_end: 9.28
whisper_vad: vad_segment_info: orig_start: 9.70, orig_end: 16.16, vad_start: 9.48, vad_end: 15.94
whisper_vad: vad_segment_info: orig_start: 16.45, orig_end: 24.67, vad_start: 16.14, vad_end: 24.36
whisper_vad: vad_segment_info: orig_start: 25.38, orig_end: 55.77, vad_start: 24.56, vad_end: 54.95
whisper_vad: vad_segment_info: orig_start: 56.16, orig_end: 58.85, vad_start: 55.15, vad_end: 57.84
whisper_vad: vad_segment_info: orig_start: 59.04, orig_end: 60.09, vad_start: 58.04, vad_end: 59.09
whisper_vad: vad_segment_info: orig_start: 60.26, orig_end: 73.57, vad_start: 59.29, vad_end: 72.60
whisper_vad: vad_segment_info: orig_start: 73.89, orig_end: 75.45, vad_start: 72.80, vad_end: 74.36
whisper_vad: vad_segment_info: orig_start: 75.87, orig_end: 89.50, vad_start: 74.56, vad_end: 88.19
whisper_vad: vad_segment_info: orig_start: 89.92, orig_end: 104.93, vad_start: 88.39, vad_end: 103.40
whisper_vad: vad_segment_info: orig_start: 105.28, orig_end: 105.98, vad_start: 103.60, vad_end: 104.30
whisper_vad: vad_segment_info: orig_start: 106.21, orig_end: 113.05, vad_start: 104.50, vad_end: 111.34
whisper_vad: vad_segment_info: orig_start: 113.38, orig_end: 115.52, vad_start: 111.54, vad_end: 113.68
whisper_vad: vad_segment_info: orig_start: 116.16, orig_end: 117.82, vad_start: 113.88, vad_end: 115.54
whisper_vad: vad_segment_info: orig_start: 117.99, orig_end: 129.92, vad_start: 115.74, vad_end: 127.67
whisper_vad: vad_segment_info: orig_start: 130.15, orig_end: 130.49, vad_start: 127.87, vad_end: 128.21
whisper_vad: vad_segment_info: orig_start: 130.98, orig_end: 132.64, vad_start: 128.41, vad_end: 130.07
whisper_vad: vad_segment_info: orig_start: 132.99, orig_end: 139.49, vad_start: 130.27, vad_end: 136.77
whisper_vad: vad_segment_info: orig_start: 139.65, orig_end: 139.97, vad_start: 136.97, vad_end: 137.29
whisper_vad: Created time mapping table with 59 points
whisper_vad: Reduced audio from 2239488 to 2196607 samples (1.9% reduction)
ffmpeg version 8.0.1 Copyright (c) 2000-2025 the FFmpeg developers
  built with Apple clang version 17.0.0 (clang-1700.6.3.2)
  configuration: --prefix=/opt/homebrew/Cellar/ffmpeg/8.0.1_4 --enable-shared --enable-pthreads --enable-version3 --cc=clang --host-cflags= --host-ldflags= --enable-ffplay --enable-gpl --enable-libsvtav1 --enable-libopus --enable-libx264 --enable-libmp3lame --enable-libdav1d --enable-libvpx --enable-libx265 --enable-openssl --enable-videotoolbox --enable-audiotoolbox --enable-neon
  libavutil      60.  8.100 / 60.  8.100
  libavcodec     62. 11.100 / 62. 11.100
  libavformat    62.  3.100 / 62.  3.100
  libavdevice    62.  1.100 / 62.  1.100
  libavfilter    11.  4.100 / 11.  4.100
  libswscale      9.  1.100 /  9.  1.100
  libswresample   6.  1.100 /  6.  1.100
Input #0, mov,mp4,m4a,3gp,3g2,mj2, from './whisper-server-20260324-000226-63155529.wav':
  Metadata:
    major_brand     : isom
    minor_version   : 1
    compatible_brands: isomiso4
    creation_time   : 2026-03-23T10:06:49.000000Z
  Duration: 00:02:19.97, start: 0.000000, bitrate: 1069 kb/s
  Stream #0:0[0x1](und): Video: h264 (High) (avc1 / 0x31637661), yuv420p(progressive), 1280x590, 933 kb/s, SAR 1:1 DAR 128:59, 25.03 fps, 59.94 tbr, 9000k tbn (default)
    Metadata:
      handler_name    : Twitter-vork muxer
      vendor_id       : [0][0][0][0]
  Stream #0:1[0x2](und): Audio: aac (LC) (mp4a / 0x6134706D), 48000 Hz, stereo, fltp, 128 kb/s (default)
    Metadata:
      handler_name    : Twitter-vork muxer
      vendor_id       : [0][0][0][0]
Stream mapping:
  Stream #0:1 -> #0:0 (aac (native) -> pcm_s16le (native))
Press [q] to stop, [?] for help
Output #0, wav, to './whisper-server-20260324-000226-63155529.wav_temp.wav':
  Metadata:
    major_brand     : isom
    minor_version   : 1
    compatible_brands: isomiso4
    ISFT            : Lavf62.3.100
  Stream #0:0(und): Audio: pcm_s16le ([1][0][0][0] / 0x0001), 16000 Hz, mono, s16, 256 kb/s (default)
    Metadata:
      encoder         : Lavc62.11.100 pcm_s16le
      handler_name    : Twitter-vork muxer
      vendor_id       : [0][0][0][0]
[out#0/wav @ 0xbf3028300] video:0KiB audio:4374KiB subtitle:0KiB other streams:0KiB global headers:0KiB muxing overhead: 0.001741%
size=    4374KiB time=00:02:19.96 bitrate= 256.0kbits/s speed=1.93e+03x elapsed=0:00:00.07    

system_info: n_threads = 4 / 10 | WHISPER : COREML = 1 | OPENVINO = 0 | MTL : EMBED_LIBRARY = 1 | CPU : NEON = 1 | ARM_FMA = 1 | FP16_VA = 1 | MATMUL_INT8 = 1 | DOTPROD = 1 | SME = 1 | ACCELERATE = 1 | REPACK = 1 | 

operator(): processing 'blob' (2239488 samples, 140.0 sec), 4 threads, 1 processors, lang = tr, task = transcribe, timestamps = 1 ...

whisper_full: VAD is enabled, processing speech segments only
whisper_vad: VAD is enabled, processing speech segments only
whisper_vad_segments_from_samples: detecting speech timestamps in 2239488 samples
whisper_vad_detect_speech: detecting speech in 2239488 samples
whisper_vad_detect_speech: n_chunks: 4374
whisper_vad_detect_speech: props size: 4374
whisper_vad_detect_speech: vad time = 485.98 ms processing 2239488 samples
whisper_vad_segments_from_probs: detecting speech timestamps using 4374 probabilities
whisper_vad_segments_from_probs: Merged 3 adjacent segments, now have 20 segments
whisper_vad_segments_from_probs: Final speech segments after filtering: 20
whisper_vad_segments_from_probs: VAD segment 0: start = 0.16, end = 7.58 (duration: 7.42)
whisper_vad_segments_from_probs: VAD segment 1: start = 7.75, end = 9.41 (duration: 1.66)
whisper_vad_segments_from_probs: VAD segment 2: start = 9.70, end = 16.16 (duration: 6.46)
whisper_vad_segments_from_probs: VAD segment 3: start = 16.45, end = 24.67 (duration: 8.22)
whisper_vad_segments_from_probs: VAD segment 4: start = 25.38, end = 55.77 (duration: 30.39)
whisper_vad_segments_from_probs: VAD segment 5: start = 56.16, end = 58.85 (duration: 2.69)
whisper_vad_segments_from_probs: VAD segment 6: start = 59.04, end = 60.09 (duration: 1.05)
whisper_vad_segments_from_probs: VAD segment 7: start = 60.26, end = 73.57 (duration: 13.31)
whisper_vad_segments_from_probs: VAD segment 8: start = 73.89, end = 75.45 (duration: 1.56)
whisper_vad_segments_from_probs: VAD segment 9: start = 75.87, end = 89.50 (duration: 13.63)
whisper_vad_segments_from_probs: VAD segment 10: start = 89.92, end = 104.93 (duration: 15.01)
whisper_vad_segments_from_probs: VAD segment 11: start = 105.28, end = 105.98 (duration: 0.70)
whisper_vad_segments_from_probs: VAD segment 12: start = 106.21, end = 113.05 (duration: 6.84)
whisper_vad_segments_from_probs: VAD segment 13: start = 113.38, end = 115.52 (duration: 2.14)
whisper_vad_segments_from_probs: VAD segment 14: start = 116.16, end = 117.82 (duration: 1.66)
whisper_vad_segments_from_probs: VAD segment 15: start = 117.99, end = 129.92 (duration: 11.93)
whisper_vad_segments_from_probs: VAD segment 16: start = 130.15, end = 130.49 (duration: 0.34)
whisper_vad_segments_from_probs: VAD segment 17: start = 130.98, end = 132.64 (duration: 1.66)
whisper_vad_segments_from_probs: VAD segment 18: start = 132.99, end = 139.49 (duration: 6.50)
whisper_vad_segments_from_probs: VAD segment 19: start = 139.65, end = 139.97 (duration: 0.32)
whisper_vad: detected 20 speech segments
whisper_vad: Including segment 0: 0.16 - 7.68 (duration: 7.52)
whisper_vad: Including segment 1: 7.75 - 9.51 (duration: 1.76)
whisper_vad: Including segment 2: 9.70 - 16.26 (duration: 6.56)
whisper_vad: Including segment 3: 16.45 - 24.77 (duration: 8.32)
whisper_vad: Including segment 4: 25.38 - 55.87 (duration: 30.49)
whisper_vad: Including segment 5: 56.16 - 58.95 (duration: 2.79)
whisper_vad: Including segment 6: 59.04 - 60.19 (duration: 1.15)
whisper_vad: Including segment 7: 60.26 - 73.67 (duration: 13.41)
whisper_vad: Including segment 8: 73.89 - 75.55 (duration: 1.66)
whisper_vad: Including segment 9: 75.87 - 89.60 (duration: 13.73)
whisper_vad: Including segment 10: 89.92 - 105.03 (duration: 15.11)
whisper_vad: Including segment 11: 105.28 - 106.08 (duration: 0.80)
whisper_vad: Including segment 12: 106.21 - 113.15 (duration: 6.94)
whisper_vad: Including segment 13: 113.38 - 115.62 (duration: 2.24)
whisper_vad: Including segment 14: 116.16 - 117.92 (duration: 1.76)
whisper_vad: Including segment 15: 117.99 - 130.02 (duration: 12.03)
whisper_vad: Including segment 16: 130.15 - 130.59 (duration: 0.44)
whisper_vad: Including segment 17: 130.98 - 132.74 (duration: 1.76)
whisper_vad: Including segment 18: 132.99 - 139.59 (duration: 6.60)
whisper_vad: Including segment 19: 139.65 - 139.97 (duration: 0.32)
whisper_vad: total duration of speech segments: 135.39 seconds
whisper_vad: vad_segment_info: orig_start: 0.16, orig_end: 7.58, vad_start: 0.00, vad_end: 7.42
whisper_vad: vad_segment_info: orig_start: 7.75, orig_end: 9.41, vad_start: 7.62, vad_end: 9.28
whisper_vad: vad_segment_info: orig_start: 9.70, orig_end: 16.16, vad_start: 9.48, vad_end: 15.94
whisper_vad: vad_segment_info: orig_start: 16.45, orig_end: 24.67, vad_start: 16.14, vad_end: 24.36
whisper_vad: vad_segment_info: orig_start: 25.38, orig_end: 55.77, vad_start: 24.56, vad_end: 54.95
whisper_vad: vad_segment_info: orig_start: 56.16, orig_end: 58.85, vad_start: 55.15, vad_end: 57.84
whisper_vad: vad_segment_info: orig_start: 59.04, orig_end: 60.09, vad_start: 58.04, vad_end: 59.09
whisper_vad: vad_segment_info: orig_start: 60.26, orig_end: 73.57, vad_start: 59.29, vad_end: 72.60
whisper_vad: vad_segment_info: orig_start: 73.89, orig_end: 75.45, vad_start: 72.80, vad_end: 74.36
whisper_vad: vad_segment_info: orig_start: 75.87, orig_end: 89.50, vad_start: 74.56, vad_end: 88.19
whisper_vad: vad_segment_info: orig_start: 89.92, orig_end: 104.93, vad_start: 88.39, vad_end: 103.40
whisper_vad: vad_segment_info: orig_start: 105.28, orig_end: 105.98, vad_start: 103.60, vad_end: 104.30
whisper_vad: vad_segment_info: orig_start: 106.21, orig_end: 113.05, vad_start: 104.50, vad_end: 111.34
whisper_vad: vad_segment_info: orig_start: 113.38, orig_end: 115.52, vad_start: 111.54, vad_end: 113.68
whisper_vad: vad_segment_info: orig_start: 116.16, orig_end: 117.82, vad_start: 113.88, vad_end: 115.54
whisper_vad: vad_segment_info: orig_start: 117.99, orig_end: 129.92, vad_start: 115.74, vad_end: 127.67
whisper_vad: vad_segment_info: orig_start: 130.15, orig_end: 130.49, vad_start: 127.87, vad_end: 128.21
whisper_vad: vad_segment_info: orig_start: 130.98, orig_end: 132.64, vad_start: 128.41, vad_end: 130.07
whisper_vad: vad_segment_info: orig_start: 132.99, orig_end: 139.49, vad_start: 130.27, vad_end: 136.77
whisper_vad: vad_segment_info: orig_start: 139.65, orig_end: 139.97, vad_start: 136.97, vad_end: 137.29
whisper_vad: Created time mapping table with 59 points
whisper_vad: Reduced audio from 2239488 to 2196607 samples (1.9% reduction)
ffmpeg version 8.0.1 Copyright (c) 2000-2025 the FFmpeg developers
  built with Apple clang version 17.0.0 (clang-1700.6.3.2)
  configuration: --prefix=/opt/homebrew/Cellar/ffmpeg/8.0.1_4 --enable-shared --enable-pthreads --enable-version3 --cc=clang --host-cflags= --host-ldflags= --enable-ffplay --enable-gpl --enable-libsvtav1 --enable-libopus --enable-libx264 --enable-libmp3lame --enable-libdav1d --enable-libvpx --enable-libx265 --enable-openssl --enable-videotoolbox --enable-audiotoolbox --enable-neon
  libavutil      60.  8.100 / 60.  8.100
  libavcodec     62. 11.100 / 62. 11.100
  libavformat    62.  3.100 / 62.  3.100
  libavdevice    62.  1.100 / 62.  1.100
  libavfilter    11.  4.100 / 11.  4.100
  libswscale      9.  1.100 /  9.  1.100
  libswresample   6.  1.100 /  6.  1.100
Input #0, mov,mp4,m4a,3gp,3g2,mj2, from './whisper-server-20260324-000632-656165619.wav':
  Metadata:
    major_brand     : isom
    minor_version   : 1
    compatible_brands: isomiso4
    creation_time   : 2026-03-23T10:06:49.000000Z
  Duration: 00:02:19.97, start: 0.000000, bitrate: 1069 kb/s
  Stream #0:0[0x1](und): Video: h264 (High) (avc1 / 0x31637661), yuv420p(progressive), 1280x590, 933 kb/s, SAR 1:1 DAR 128:59, 25.03 fps, 59.94 tbr, 9000k tbn (default)
    Metadata:
      handler_name    : Twitter-vork muxer
      vendor_id       : [0][0][0][0]
  Stream #0:1[0x2](und): Audio: aac (LC) (mp4a / 0x6134706D), 48000 Hz, stereo, fltp, 128 kb/s (default)
    Metadata:
      handler_name    : Twitter-vork muxer
      vendor_id       : [0][0][0][0]
Stream mapping:
  Stream #0:1 -> #0:0 (aac (native) -> pcm_s16le (native))
Press [q] to stop, [?] for help
Output #0, wav, to './whisper-server-20260324-000632-656165619.wav_temp.wav':
  Metadata:
    major_brand     : isom
    minor_version   : 1
    compatible_brands: isomiso4
    ISFT            : Lavf62.3.100
  Stream #0:0(und): Audio: pcm_s16le ([1][0][0][0] / 0x0001), 16000 Hz, mono, s16, 256 kb/s (default)
    Metadata:
      encoder         : Lavc62.11.100 pcm_s16le
      handler_name    : Twitter-vork muxer
      vendor_id       : [0][0][0][0]
[out#0/wav @ 0xad2c44300] video:0KiB audio:4374KiB subtitle:0KiB other streams:0KiB global headers:0KiB muxing overhead: 0.001741%
size=    4374KiB time=00:02:19.96 bitrate= 256.0kbits/s speed=1.97e+03x elapsed=0:00:00.07    

system_info: n_threads = 4 / 10 | WHISPER : COREML = 1 | OPENVINO = 0 | MTL : EMBED_LIBRARY = 1 | CPU : NEON = 1 | ARM_FMA = 1 | FP16_VA = 1 | MATMUL_INT8 = 1 | DOTPROD = 1 | SME = 1 | ACCELERATE = 1 | REPACK = 1 | 

operator(): processing 'blob' (2239488 samples, 140.0 sec), 4 threads, 1 processors, lang = tr, task = transcribe, timestamps = 1 ...

whisper_full: VAD is enabled, processing speech segments only
whisper_vad: VAD is enabled, processing speech segments only
whisper_vad_segments_from_samples: detecting speech timestamps in 2239488 samples
whisper_vad_detect_speech: detecting speech in 2239488 samples
whisper_vad_detect_speech: n_chunks: 4374
whisper_vad_detect_speech: props size: 4374
whisper_vad_detect_speech: vad time = 729.94 ms processing 2239488 samples
whisper_vad_segments_from_probs: detecting speech timestamps using 4374 probabilities
whisper_vad_segments_from_probs: Merged 3 adjacent segments, now have 20 segments
whisper_vad_segments_from_probs: Final speech segments after filtering: 20
whisper_vad_segments_from_probs: VAD segment 0: start = 0.16, end = 7.58 (duration: 7.42)
whisper_vad_segments_from_probs: VAD segment 1: start = 7.75, end = 9.41 (duration: 1.66)
whisper_vad_segments_from_probs: VAD segment 2: start = 9.70, end = 16.16 (duration: 6.46)
whisper_vad_segments_from_probs: VAD segment 3: start = 16.45, end = 24.67 (duration: 8.22)
whisper_vad_segments_from_probs: VAD segment 4: start = 25.38, end = 55.77 (duration: 30.39)
whisper_vad_segments_from_probs: VAD segment 5: start = 56.16, end = 58.85 (duration: 2.69)
whisper_vad_segments_from_probs: VAD segment 6: start = 59.04, end = 60.09 (duration: 1.05)
whisper_vad_segments_from_probs: VAD segment 7: start = 60.26, end = 73.57 (duration: 13.31)
whisper_vad_segments_from_probs: VAD segment 8: start = 73.89, end = 75.45 (duration: 1.56)
whisper_vad_segments_from_probs: VAD segment 9: start = 75.87, end = 89.50 (duration: 13.63)
whisper_vad_segments_from_probs: VAD segment 10: start = 89.92, end = 104.93 (duration: 15.01)
whisper_vad_segments_from_probs: VAD segment 11: start = 105.28, end = 105.98 (duration: 0.70)
whisper_vad_segments_from_probs: VAD segment 12: start = 106.21, end = 113.05 (duration: 6.84)
whisper_vad_segments_from_probs: VAD segment 13: start = 113.38, end = 115.52 (duration: 2.14)
whisper_vad_segments_from_probs: VAD segment 14: start = 116.16, end = 117.82 (duration: 1.66)
whisper_vad_segments_from_probs: VAD segment 15: start = 117.99, end = 129.92 (duration: 11.93)
whisper_vad_segments_from_probs: VAD segment 16: start = 130.15, end = 130.49 (duration: 0.34)
whisper_vad_segments_from_probs: VAD segment 17: start = 130.98, end = 132.64 (duration: 1.66)
whisper_vad_segments_from_probs: VAD segment 18: start = 132.99, end = 139.49 (duration: 6.50)
whisper_vad_segments_from_probs: VAD segment 19: start = 139.65, end = 139.97 (duration: 0.32)
whisper_vad: detected 20 speech segments
whisper_vad: Including segment 0: 0.16 - 7.68 (duration: 7.52)
whisper_vad: Including segment 1: 7.75 - 9.51 (duration: 1.76)
whisper_vad: Including segment 2: 9.70 - 16.26 (duration: 6.56)
whisper_vad: Including segment 3: 16.45 - 24.77 (duration: 8.32)
whisper_vad: Including segment 4: 25.38 - 55.87 (duration: 30.49)
whisper_vad: Including segment 5: 56.16 - 58.95 (duration: 2.79)
whisper_vad: Including segment 6: 59.04 - 60.19 (duration: 1.15)
whisper_vad: Including segment 7: 60.26 - 73.67 (duration: 13.41)
whisper_vad: Including segment 8: 73.89 - 75.55 (duration: 1.66)
whisper_vad: Including segment 9: 75.87 - 89.60 (duration: 13.73)
whisper_vad: Including segment 10: 89.92 - 105.03 (duration: 15.11)
whisper_vad: Including segment 11: 105.28 - 106.08 (duration: 0.80)
whisper_vad: Including segment 12: 106.21 - 113.15 (duration: 6.94)
whisper_vad: Including segment 13: 113.38 - 115.62 (duration: 2.24)
whisper_vad: Including segment 14: 116.16 - 117.92 (duration: 1.76)
whisper_vad: Including segment 15: 117.99 - 130.02 (duration: 12.03)
whisper_vad: Including segment 16: 130.15 - 130.59 (duration: 0.44)
whisper_vad: Including segment 17: 130.98 - 132.74 (duration: 1.76)
whisper_vad: Including segment 18: 132.99 - 139.59 (duration: 6.60)
whisper_vad: Including segment 19: 139.65 - 139.97 (duration: 0.32)
whisper_vad: total duration of speech segments: 135.39 seconds
whisper_vad: vad_segment_info: orig_start: 0.16, orig_end: 7.58, vad_start: 0.00, vad_end: 7.42
whisper_vad: vad_segment_info: orig_start: 7.75, orig_end: 9.41, vad_start: 7.62, vad_end: 9.28
whisper_vad: vad_segment_info: orig_start: 9.70, orig_end: 16.16, vad_start: 9.48, vad_end: 15.94
whisper_vad: vad_segment_info: orig_start: 16.45, orig_end: 24.67, vad_start: 16.14, vad_end: 24.36
whisper_vad: vad_segment_info: orig_start: 25.38, orig_end: 55.77, vad_start: 24.56, vad_end: 54.95
whisper_vad: vad_segment_info: orig_start: 56.16, orig_end: 58.85, vad_start: 55.15, vad_end: 57.84
whisper_vad: vad_segment_info: orig_start: 59.04, orig_end: 60.09, vad_start: 58.04, vad_end: 59.09
whisper_vad: vad_segment_info: orig_start: 60.26, orig_end: 73.57, vad_start: 59.29, vad_end: 72.60
whisper_vad: vad_segment_info: orig_start: 73.89, orig_end: 75.45, vad_start: 72.80, vad_end: 74.36
whisper_vad: vad_segment_info: orig_start: 75.87, orig_end: 89.50, vad_start: 74.56, vad_end: 88.19
whisper_vad: vad_segment_info: orig_start: 89.92, orig_end: 104.93, vad_start: 88.39, vad_end: 103.40
whisper_vad: vad_segment_info: orig_start: 105.28, orig_end: 105.98, vad_start: 103.60, vad_end: 104.30
whisper_vad: vad_segment_info: orig_start: 106.21, orig_end: 113.05, vad_start: 104.50, vad_end: 111.34
whisper_vad: vad_segment_info: orig_start: 113.38, orig_end: 115.52, vad_start: 111.54, vad_end: 113.68
whisper_vad: vad_segment_info: orig_start: 116.16, orig_end: 117.82, vad_start: 113.88, vad_end: 115.54
whisper_vad: vad_segment_info: orig_start: 117.99, orig_end: 129.92, vad_start: 115.74, vad_end: 127.67
whisper_vad: vad_segment_info: orig_start: 130.15, orig_end: 130.49, vad_start: 127.87, vad_end: 128.21
whisper_vad: vad_segment_info: orig_start: 130.98, orig_end: 132.64, vad_start: 128.41, vad_end: 130.07
whisper_vad: vad_segment_info: orig_start: 132.99, orig_end: 139.49, vad_start: 130.27, vad_end: 136.77
whisper_vad: vad_segment_info: orig_start: 139.65, orig_end: 139.97, vad_start: 136.97, vad_end: 137.29
whisper_vad: Created time mapping table with 59 points
whisper_vad: Reduced audio from 2239488 to 2196607 samples (1.9% reduction)
ffmpeg version 8.0.1 Copyright (c) 2000-2025 the FFmpeg developers
  built with Apple clang version 17.0.0 (clang-1700.6.3.2)
  configuration: --prefix=/opt/homebrew/Cellar/ffmpeg/8.0.1_4 --enable-shared --enable-pthreads --enable-version3 --cc=clang --host-cflags= --host-ldflags= --enable-ffplay --enable-gpl --enable-libsvtav1 --enable-libopus --enable-libx264 --enable-libmp3lame --enable-libdav1d --enable-libvpx --enable-libx265 --enable-openssl --enable-videotoolbox --enable-audiotoolbox --enable-neon
  libavutil      60.  8.100 / 60.  8.100
  libavcodec     62. 11.100 / 62. 11.100
  libavformat    62.  3.100 / 62.  3.100
  libavdevice    62.  1.100 / 62.  1.100
  libavfilter    11.  4.100 / 11.  4.100
  libswscale      9.  1.100 /  9.  1.100
  libswresample   6.  1.100 /  6.  1.100
Input #0, mov,mp4,m4a,3gp,3g2,mj2, from './whisper-server-20260324-001827-125903793.wav':
  Metadata:
    major_brand     : isom
    minor_version   : 1
    compatible_brands: isomiso4
    creation_time   : 2026-03-23T10:06:49.000000Z
  Duration: 00:02:19.97, start: 0.000000, bitrate: 1069 kb/s
  Stream #0:0[0x1](und): Video: h264 (High) (avc1 / 0x31637661), yuv420p(progressive), 1280x590, 933 kb/s, SAR 1:1 DAR 128:59, 25.03 fps, 59.94 tbr, 9000k tbn (default)
    Metadata:
      handler_name    : Twitter-vork muxer
      vendor_id       : [0][0][0][0]
  Stream #0:1[0x2](und): Audio: aac (LC) (mp4a / 0x6134706D), 48000 Hz, stereo, fltp, 128 kb/s (default)
    Metadata:
      handler_name    : Twitter-vork muxer
      vendor_id       : [0][0][0][0]
Stream mapping:
  Stream #0:1 -> #0:0 (aac (native) -> pcm_s16le (native))
Press [q] to stop, [?] for help
Output #0, wav, to './whisper-server-20260324-001827-125903793.wav_temp.wav':
  Metadata:
    major_brand     : isom
    minor_version   : 1
    compatible_brands: isomiso4
    ISFT            : Lavf62.3.100
  Stream #0:0(und): Audio: pcm_s16le ([1][0][0][0] / 0x0001), 16000 Hz, mono, s16, 256 kb/s (default)
    Metadata:
      encoder         : Lavc62.11.100 pcm_s16le
      handler_name    : Twitter-vork muxer
      vendor_id       : [0][0][0][0]
[out#0/wav @ 0x937008900] video:0KiB audio:4374KiB subtitle:0KiB other streams:0KiB global headers:0KiB muxing overhead: 0.001741%
size=    4374KiB time=00:02:19.96 bitrate= 256.0kbits/s speed=1.92e+03x elapsed=0:00:00.07    

system_info: n_threads = 4 / 10 | WHISPER : COREML = 1 | OPENVINO = 0 | MTL : EMBED_LIBRARY = 1 | CPU : NEON = 1 | ARM_FMA = 1 | FP16_VA = 1 | MATMUL_INT8 = 1 | DOTPROD = 1 | SME = 1 | ACCELERATE = 1 | REPACK = 1 | 

operator(): processing 'blob' (2239488 samples, 140.0 sec), 4 threads, 1 processors, lang = tr, task = transcribe, timestamps = 1 ...

whisper_full: VAD is enabled, processing speech segments only
whisper_vad: VAD is enabled, processing speech segments only
whisper_vad_segments_from_samples: detecting speech timestamps in 2239488 samples
whisper_vad_detect_speech: detecting speech in 2239488 samples
whisper_vad_detect_speech: n_chunks: 4374
whisper_vad_detect_speech: props size: 4374
whisper_vad_detect_speech: vad time = 975.69 ms processing 2239488 samples
whisper_vad_segments_from_probs: detecting speech timestamps using 4374 probabilities
whisper_vad_segments_from_probs: Merged 3 adjacent segments, now have 20 segments
whisper_vad_segments_from_probs: Final speech segments after filtering: 20
whisper_vad_segments_from_probs: VAD segment 0: start = 0.16, end = 7.58 (duration: 7.42)
whisper_vad_segments_from_probs: VAD segment 1: start = 7.75, end = 9.41 (duration: 1.66)
whisper_vad_segments_from_probs: VAD segment 2: start = 9.70, end = 16.16 (duration: 6.46)
whisper_vad_segments_from_probs: VAD segment 3: start = 16.45, end = 24.67 (duration: 8.22)
whisper_vad_segments_from_probs: VAD segment 4: start = 25.38, end = 55.77 (duration: 30.39)
whisper_vad_segments_from_probs: VAD segment 5: start = 56.16, end = 58.85 (duration: 2.69)
whisper_vad_segments_from_probs: VAD segment 6: start = 59.04, end = 60.09 (duration: 1.05)
whisper_vad_segments_from_probs: VAD segment 7: start = 60.26, end = 73.57 (duration: 13.31)
whisper_vad_segments_from_probs: VAD segment 8: start = 73.89, end = 75.45 (duration: 1.56)
whisper_vad_segments_from_probs: VAD segment 9: start = 75.87, end = 89.50 (duration: 13.63)
whisper_vad_segments_from_probs: VAD segment 10: start = 89.92, end = 104.93 (duration: 15.01)
whisper_vad_segments_from_probs: VAD segment 11: start = 105.28, end = 105.98 (duration: 0.70)
whisper_vad_segments_from_probs: VAD segment 12: start = 106.21, end = 113.05 (duration: 6.84)
whisper_vad_segments_from_probs: VAD segment 13: start = 113.38, end = 115.52 (duration: 2.14)
whisper_vad_segments_from_probs: VAD segment 14: start = 116.16, end = 117.82 (duration: 1.66)
whisper_vad_segments_from_probs: VAD segment 15: start = 117.99, end = 129.92 (duration: 11.93)
whisper_vad_segments_from_probs: VAD segment 16: start = 130.15, end = 130.49 (duration: 0.34)
whisper_vad_segments_from_probs: VAD segment 17: start = 130.98, end = 132.64 (duration: 1.66)
whisper_vad_segments_from_probs: VAD segment 18: start = 132.99, end = 139.49 (duration: 6.50)
whisper_vad_segments_from_probs: VAD segment 19: start = 139.65, end = 139.97 (duration: 0.32)
whisper_vad: detected 20 speech segments
whisper_vad: Including segment 0: 0.16 - 7.68 (duration: 7.52)
whisper_vad: Including segment 1: 7.75 - 9.51 (duration: 1.76)
whisper_vad: Including segment 2: 9.70 - 16.26 (duration: 6.56)
whisper_vad: Including segment 3: 16.45 - 24.77 (duration: 8.32)
whisper_vad: Including segment 4: 25.38 - 55.87 (duration: 30.49)
whisper_vad: Including segment 5: 56.16 - 58.95 (duration: 2.79)
whisper_vad: Including segment 6: 59.04 - 60.19 (duration: 1.15)
whisper_vad: Including segment 7: 60.26 - 73.67 (duration: 13.41)
whisper_vad: Including segment 8: 73.89 - 75.55 (duration: 1.66)
whisper_vad: Including segment 9: 75.87 - 89.60 (duration: 13.73)
whisper_vad: Including segment 10: 89.92 - 105.03 (duration: 15.11)
whisper_vad: Including segment 11: 105.28 - 106.08 (duration: 0.80)
whisper_vad: Including segment 12: 106.21 - 113.15 (duration: 6.94)
whisper_vad: Including segment 13: 113.38 - 115.62 (duration: 2.24)
whisper_vad: Including segment 14: 116.16 - 117.92 (duration: 1.76)
whisper_vad: Including segment 15: 117.99 - 130.02 (duration: 12.03)
whisper_vad: Including segment 16: 130.15 - 130.59 (duration: 0.44)
whisper_vad: Including segment 17: 130.98 - 132.74 (duration: 1.76)
whisper_vad: Including segment 18: 132.99 - 139.59 (duration: 6.60)
whisper_vad: Including segment 19: 139.65 - 139.97 (duration: 0.32)
whisper_vad: total duration of speech segments: 135.39 seconds
whisper_vad: vad_segment_info: orig_start: 0.16, orig_end: 7.58, vad_start: 0.00, vad_end: 7.42
whisper_vad: vad_segment_info: orig_start: 7.75, orig_end: 9.41, vad_start: 7.62, vad_end: 9.28
whisper_vad: vad_segment_info: orig_start: 9.70, orig_end: 16.16, vad_start: 9.48, vad_end: 15.94
whisper_vad: vad_segment_info: orig_start: 16.45, orig_end: 24.67, vad_start: 16.14, vad_end: 24.36
whisper_vad: vad_segment_info: orig_start: 25.38, orig_end: 55.77, vad_start: 24.56, vad_end: 54.95
whisper_vad: vad_segment_info: orig_start: 56.16, orig_end: 58.85, vad_start: 55.15, vad_end: 57.84
whisper_vad: vad_segment_info: orig_start: 59.04, orig_end: 60.09, vad_start: 58.04, vad_end: 59.09
whisper_vad: vad_segment_info: orig_start: 60.26, orig_end: 73.57, vad_start: 59.29, vad_end: 72.60
whisper_vad: vad_segment_info: orig_start: 73.89, orig_end: 75.45, vad_start: 72.80, vad_end: 74.36
whisper_vad: vad_segment_info: orig_start: 75.87, orig_end: 89.50, vad_start: 74.56, vad_end: 88.19
whisper_vad: vad_segment_info: orig_start: 89.92, orig_end: 104.93, vad_start: 88.39, vad_end: 103.40
whisper_vad: vad_segment_info: orig_start: 105.28, orig_end: 105.98, vad_start: 103.60, vad_end: 104.30
whisper_vad: vad_segment_info: orig_start: 106.21, orig_end: 113.05, vad_start: 104.50, vad_end: 111.34
whisper_vad: vad_segment_info: orig_start: 113.38, orig_end: 115.52, vad_start: 111.54, vad_end: 113.68
whisper_vad: vad_segment_info: orig_start: 116.16, orig_end: 117.82, vad_start: 113.88, vad_end: 115.54
whisper_vad: vad_segment_info: orig_start: 117.99, orig_end: 129.92, vad_start: 115.74, vad_end: 127.67
whisper_vad: vad_segment_info: orig_start: 130.15, orig_end: 130.49, vad_start: 127.87, vad_end: 128.21
whisper_vad: vad_segment_info: orig_start: 130.98, orig_end: 132.64, vad_start: 128.41, vad_end: 130.07
whisper_vad: vad_segment_info: orig_start: 132.99, orig_end: 139.49, vad_start: 130.27, vad_end: 136.77
whisper_vad: vad_segment_info: orig_start: 139.65, orig_end: 139.97, vad_start: 136.97, vad_end: 137.29
whisper_vad: Created time mapping table with 59 points
whisper_vad: Reduced audio from 2239488 to 2196607 samples (1.9% reduction)
